<svg xmlns="http://www.w3.org/2000/svg" version="1.1" xmlns:xlink="http://www.w3.org/1999/xlink" xmlns:svgjs="http://svgjs.dev/svgjs" width="1500" height="1500" viewBox="0 0 1500 1500"><rect width="1500" height="1500" fill="#ffffff"></rect><g transform="matrix(0.6666666666666666,0,0,0.6666666666666666,249.39393939393938,651.6557915663101)"><svg viewBox="0 0 396 78" data-background-color="#ffffff" preserveAspectRatio="xMidYMid meet" height="295" width="1500" xmlns="http://www.w3.org/2000/svg" xmlns:xlink="http://www.w3.org/1999/xlink"><g id="tight-bounds" transform="matrix(1,0,0,1,0.2400000000000091,0.004313175395623148)"><svg viewBox="0 0 395.52 77.99137364920875" height="77.99137364920875" width="395.52"><g><svg viewBox="0 0 482.9452033434874 95.23048090123135" height="77.99137364920875" width="395.52"><g transform="matrix(1,0,0,1,87.42520334348748,13.161376159287407)"><svg viewBox="0 0 395.5199999999999 68.90772858265653" height="68.90772858265653" width="395.5199999999999"><g id="textblocktransform"><svg viewBox="0 0 395.5199999999999 68.90772858265653" height="68.90772858265653" width="395.5199999999999" id="textblock"><g><svg viewBox="0 0 395.5199999999999 68.90772858265653" height="68.90772858265653" width="395.5199999999999"><g transform="matrix(1,0,0,1,0,0)"><svg width="395.5199999999999" viewBox="2.6 -32.75 194.13 33.25" height="68.90772858265653" data-palette-color="#4a596d"><g class="wordmark-text-0" data-fill-palette-color="primary" id="text-0"><path d="M17.5-30.8L17.5-27.6 7.1-27.6 7.1-19.35 13.6-19.35 13.6-16.15 7.1-16.15 7.1 0 3.6 0 3.6-27.6 2.6-30.8 17.5-30.8ZM21.7 0L21.7-16.65 20.25-18.9Q22.45-20.75 25.12-21.68 27.8-22.6 30.55-23L30.55-23 31.1-20Q28.7-19.65 27.25-19.18 25.8-18.7 24.9-18.2L24.9-18.2 24.9 0 21.7 0ZM34.7-1.75L34.7-13.25Q34.7-14.2 34.75-15.5 34.8-16.8 35.22-18.2 35.65-19.6 36.75-20.8L36.75-20.8Q38.15-22.3 39.82-22.65 41.5-23 42.75-23L42.75-23Q44.05-23 45.7-22.65 47.34-22.3 48.75-20.8L48.75-20.8Q49.84-19.6 50.27-18.2 50.7-16.8 50.75-15.5 50.8-14.2 50.8-13.25L50.8-13.25 50.8-5.1 52.5-3.05Q50.5-1.3 48.09-0.4 45.7 0.5 42.75 0.5L42.75 0.5Q39.84 0.5 37.87-0.23 35.9-0.95 34.7-1.75L34.7-1.75ZM37.9-13.35L37.9-3.8Q39.05-3 40.34-2.75 41.65-2.5 42.75-2.5L42.75-2.5Q43.84-2.5 45.17-2.75 46.5-3 47.59-3.8L47.59-3.8 47.59-13.35Q47.59-14.45 47.47-15.85 47.34-17.25 46.59-18.3L46.59-18.3Q46.25-18.8 45.34-19.4 44.45-20 42.75-20L42.75-20Q41.05-20 40.17-19.4 39.3-18.8 38.9-18.3L38.9-18.3Q38.15-17.25 38.02-15.85 37.9-14.45 37.9-13.35L37.9-13.35ZM56.69-18.25L55.54-20.7Q56.84-21.5 58.99-22.25 61.14-23 64.14-23L64.14-23Q65.44-23 66.92-22.73 68.39-22.45 69.74-21.63 71.09-20.8 71.94-19.05L71.94-19.05Q72.29-18.3 72.47-17.25 72.64-16.2 72.74-14.53 72.84-12.85 72.84-10.15L72.84-10.15 72.84 0 69.64 0 69.64-10.25Q69.64-13.55 69.47-15.28 69.29-17 68.69-17.95L68.69-17.95Q68.24-18.65 67.17-19.33 66.09-20 63.94-20L63.94-20Q62.74-20 61.74-19.8 60.74-19.6 59.89-19.25L59.89-19.25 59.89 0 56.69 0 56.69-18.25ZM77.19-28.5L81.39-28.5 81.39-22.5 86.14-22.5 86.14-19.4 81.39-19.4 81.39-12.95Q81.39-11.55 81.47-9.8 81.54-8.05 82.49-6.45L82.49-6.45Q83.19-5.3 84.67-4.05 86.14-2.8 87.44-2L87.44-2 85.54 0.5Q84.09-0.3 82.62-1.5 81.14-2.7 80.19-4L80.19-4Q78.84-5.9 78.52-7.83 78.19-9.75 78.19-11.65L78.19-11.65 78.19-25.35 77.19-28.5ZM91.54-26.7L90.14-29.45Q92.04-30.3 94.51-30.8 96.99-31.3 98.99-31.3L98.99-31.3Q101.04-31.3 102.79-30.68 104.54-30.05 105.64-28.9L105.64-28.9Q107.39-27.15 107.64-25.15 107.89-23.15 107.89-21.25L107.89-21.25 107.89-16.15 95.04-16.15 95.04 0 91.54 0 91.54-26.7ZM95.04-27.5L95.04-19.35 104.49-19.35 104.49-21.2Q104.49-22.25 104.31-23.7 104.14-25.15 103.14-26.4L103.14-26.4Q102.04-27.6 100.86-27.85 99.69-28.1 98.79-28.1L98.79-28.1Q97.79-28.1 96.74-27.93 95.69-27.75 95.04-27.5L95.04-27.5ZM128.59-4.25L129.78-1.8Q128.49-1 126.34-0.25 124.19 0.5 121.14 0.5L121.14 0.5Q119.89 0.5 118.39 0.23 116.89-0.05 115.56-0.9 114.23-1.75 113.39-3.45L113.39-3.45Q113.09-4.2 112.89-5.25 112.69-6.3 112.59-8 112.48-9.7 112.48-12.35L112.48-12.35 112.48-22.5 115.69-22.5 115.69-12.25Q115.69-8.95 115.86-7.23 116.03-5.5 116.64-4.55L116.64-4.55Q117.09-3.9 118.16-3.2 119.23-2.5 121.39-2.5L121.39-2.5Q122.59-2.5 123.59-2.7 124.59-2.9 125.39-3.25L125.39-3.25 125.39-22.5 128.59-22.5 128.59-4.25ZM147.88-22.5L138.13-3.1 147.88-3.1 147.88 0 133.03 0 142.73-19.4 134.08-19.4 134.08-22.5 147.88-22.5ZM165.68-22.5L155.93-3.1 165.68-3.1 165.68 0 150.83 0 160.53-19.4 151.88-19.4 151.88-22.5 165.68-22.5ZM169.23-32.75L173.43-32.75 173.43-12.95Q173.43-10.2 173.7-8.33 173.98-6.45 175.03-5 176.08-3.55 178.38-2.15L178.38-2.15 176.73 0.5Q173.98-0.95 172.58-2.78 171.18-4.6 170.7-7.05 170.23-9.5 170.23-12.95L170.23-12.95 170.23-29.6 169.23-32.75ZM196.73-10.35L184.53-10.35 184.53-3.8Q185.68-3 187.03-2.75 188.38-2.5 189.53-2.5L189.53-2.5Q191.68-2.5 193.4-2.98 195.13-3.45 196.73-4.55L196.73-4.55 196.73-1.2Q195.23-0.3 193.45 0.1 191.68 0.5 189.63 0.5L189.63 0.5Q186.43 0.5 184-0.4 181.58-1.3 179.58-3.05L179.58-3.05 181.33-5.1 181.33-13.25Q181.33-14.2 181.35-15.5 181.38-16.8 181.78-18.2 182.18-19.6 183.23-20.8L183.23-20.8Q184.58-22.3 186.15-22.65 187.73-23 188.98-23L188.98-23Q190.28-23 191.85-22.65 193.43-22.3 194.73-20.8L194.73-20.8Q195.78-19.6 196.2-18.2 196.63-16.8 196.68-15.5 196.73-14.2 196.73-13.25L196.73-13.25 196.73-10.35ZM184.53-13.35L193.23-13.35Q193.23-14.45 193.13-15.85 193.03-17.25 192.33-18.3L192.33-18.3Q192.03-18.8 191.23-19.4 190.43-20 188.88-20L188.88-20Q187.38-20 186.55-19.4 185.73-18.8 185.38-18.3L185.38-18.3Q184.73-17.25 184.63-15.85 184.53-14.45 184.53-13.35L184.53-13.35Z" fill="#4a596d" data-fill-palette-color="primary"></path></g></svg></g></svg></g></svg></g></svg></g><g><svg viewBox="0 0 71.15774241060826 95.23048090123135" height="95.23048090123135" width="71.15774241060826"><g><svg xmlns="http://www.w3.org/2000/svg" xmlns:xlink="http://www.w3.org/1999/xlink" version="1.1" x="0" y="0" viewBox="16.200000000000003 5.200000000000001 67.1 89.8" enable-background="new 0 0 100 100" xml:space="preserve" height="95.23048090123135" width="71.15774241060826" class="icon-icon-0" data-fill-palette-color="accent" id="icon-0"><polygon points="82.1,74 75,81.1 75,81.1 82.1,74 74,65.9 74,65.9 " fill="#4a596d" data-fill-palette-color="accent"></polygon><rect x="64.5" y="51.5" width="0" height="9.8" fill="#4a596d" data-fill-palette-color="accent"></rect><path d="M61.1 52.9L61.1 52.9 61.1 52.9l-4.9 4.9c2.5 1.2 4.3 3.8 4.3 6.9 0 4.2-3.4 7.6-7.6 7.6-3 0-5.6-1.8-6.9-4.3l-5.9 5.9L40 74l21 21 8.1-8.1h0c-3.2 0-5.9-2.6-5.9-5.9 0-3.3 2.6-5.9 5.9-5.9 3.2 0 5.9 2.6 5.9 5.9l7.1-7.1L74 65.9l0 0-0.6-0.6c0.1 0 0.3 0 0.4 0 3.2 0 5.9-2.6 5.9-5.9 0-1.5-0.6-2.8-1.5-3.9-1-0.9-2.4-1.5-3.9-1.5-3.2 0-5.9 2.6-5.9 5.9 0 0.1 0 0.3 0 0.4L68 59.9l0 0L61.1 52.9z" fill="#4a596d" data-fill-palette-color="accent"></path><path d="M46.5 49.5c-4.2 0-7.6-3.4-7.6-7.6 0-3 1.7-5.6 4.2-6.8l-5.9-5.9h0l-21 21 22.2 22.2 9.5-9.5c-0.3 0.6-0.4 1.3-0.4 2 0 2.9 2.4 5.3 5.3 5.3 2.9 0 5.3-2.4 5.3-5.3 0-2.9-2.4-5.3-5.3-5.3-0.7 0-1.4 0.1-2 0.4l8.6-8.6-6-6C52.1 47.7 49.5 49.5 46.5 49.5z" fill="#4a596d" data-fill-palette-color="accent"></path><path d="M83.3 27.4l-8.7-8.7c0.1 0 0.3 0 0.4 0 3.2 0 5.9-2.6 5.9-5.9C80.9 9.6 78.3 7 75 7c-3.2 0-5.9 2.6-5.9 5.9 0 0.1 0 0.3 0 0.4l-8.1-8.1-21 21L39.3 27l-0.4 0.4 9.5 9.5c-0.6-0.2-1.2-0.3-1.8-0.3-2.9 0-5.3 2.4-5.3 5.3 0 2.9 2.4 5.3 5.3 5.3 2.9 0 5.3-2.4 5.3-5.3 0-0.5-0.1-0.9-0.2-1.4 0-0.2-0.1-0.3-0.1-0.5l0.5 0.5 9.2 9.2 0.4-0.4 0.8-0.8 6.8-6.8c0 0 0 0 0 0-3.2 0-5.9-2.6-5.9-5.9 0-3.3 2.6-5.9 5.9-5.9 3.2 0 5.9 2.6 5.9 5.9 0 0 0 0 0 0L83.3 27.4z" fill="#4a596d" data-fill-palette-color="accent"></path><rect x="61.1" y="52.9" width="0" height="0" fill="#4a596d" data-fill-palette-color="accent"></rect><rect x="61.1" y="52.9" width="0" height="0" fill="#4a596d" data-fill-palette-color="accent"></rect><path d="M51.6 40.5h0.3L51.5 40C51.5 40.1 51.5 40.3 51.6 40.5z" fill="#4a596d" data-fill-palette-color="accent"></path></svg></g></svg></g></svg></g><defs></defs></svg><rect width="395.52" height="77.99137364920875" fill="none" stroke="none" visibility="hidden"></rect></g></svg></g></svg>